<?xml version="1.0" encoding="utf-8"?>
<!DOCTYPE svg PUBLIC "-//W3C//DTD SVG 20010904//EN" "http://www.w3.org/TR/2001/REC-SVG-20010904/DTD/svg10.dtd">
<svg version="1.0" xmlns="http://www.w3.org/2000/svg" width="1982pt" height="2002pt" viewBox="0 0 1982 2002" style="" preserveAspectRatio="xMidYMid meet">
<g fill="#2196F3FF" stroke="#2196F3FF">
<path d="M 949.000 46.592 C 833.349 51.932 724.616 75.461 624.500 116.813 C 596.769 128.266 591.208 130.785 564.500 143.981 C 522.347 164.807 496.206 179.853 457.123 205.782 C 363.839 267.671 279.697 348.154 214.221 438.121 C 153.600 521.417 108.087 610.615 76.516 708.000 C 53.911 777.726 38.857 854.844 33.569 928.000 C 30.207 974.512 29.552 998.720 30.869 1027.839 C 33.134 1077.915 35.108 1100.433 40.616 1139.000 C 62.061 1289.156 120.886 1435.038 209.643 1558.175 C 302.516 1687.021 421.790 1787.894 565.767 1859.358 C 666.703 1909.458 784.537 1942.487 898.000 1952.482 C 923.341 1954.714 967.978 1956.986 986.500 1956.987 C 1005.105 1956.987 1048.823 1954.717 1074.000 1952.443 C 1261.200 1935.536 1439.279 1863.151 1586.500 1744.122 C 1686.543 1663.237 1770.090 1561.776 1830.748 1447.500 C 1880.848 1353.117 1916.002 1245.275 1930.986 1140.000 C 1937.508 1094.184 1939.808 1065.190 1940.666 1018.000 C 1942.911 894.563 1922.096 774.721 1878.662 661.000 C 1866.983 630.422 1858.300 610.548 1843.491 580.500 C 1802.303 496.929 1754.913 427.465 1691.012 357.000 C 1606.571 263.885 1496.735 183.699 1383.500 132.499 C 1360.076 121.908 1355.212 119.835 1337.000 112.686 C 1245.650 76.825 1156.473 56.505 1055.000 48.428 C 1037.670 47.049 965.996 45.807 949.000 46.592 M 705.698 353.750 C 705.845 383.813 709.486 408.905 717.706 436.500 C 750.423 546.336 844.575 626.893 958.526 642.548 C 964.562 643.377 978.050 644.330 988.500 644.665 C 1039.296 646.293 1086.453 635.768 1131.229 612.810 C 1170.937 592.450 1204.917 563.616 1232.346 527.007 C 1269.269 477.726 1289.968 414.980 1289.996 352.250 C 1289.998 347.163 1290.289 343.000 1290.643 343.000 C 1292.383 343.000 1322.017 358.006 1338.140 367.051 C 1376.012 388.297 1405.220 407.936 1438.500 434.529 C 1535.479 512.023 1612.058 614.456 1658.273 728.500 C 1688.332 802.678 1705.674 880.477 1710.099 961.000 C 1711.537 987.187 1710.710 1042.476 1708.528 1066.000 C 1701.680 1139.821 1684.018 1212.227 1657.181 1276.500 C 1647.561 1299.538 1644.879 1305.421 1634.986 1325.174 C 1607.370 1380.322 1576.056 1427.244 1533.967 1476.545 C 1522.366 1490.133 1485.256 1527.831 1470.500 1541.016 C 1379.655 1622.191 1273.281 1678.304 1157.000 1706.390 C 1123.810 1714.407 1099.498 1718.585 1063.000 1722.546 C 957.642 1733.977 851.248 1721.988 749.000 1687.162 C 632.377 1647.439 522.933 1573.685 440.000 1478.927 C 294.780 1313.000 233.410 1092.781 271.561 874.500 C 275.151 853.961 283.383 817.703 287.681 803.500 C 298.204 768.724 305.762 747.106 316.122 722.147 C 321.620 708.904 337.132 675.502 341.037 668.500 C 341.957 666.850 346.005 659.425 350.033 652.000 C 382.474 592.198 426.772 533.807 477.124 484.477 C 533.799 428.952 594.231 385.769 662.500 352.012 C 683.021 341.865 703.140 332.449 705.046 332.100 C 705.346 332.045 705.640 341.788 705.698 353.750 "/></g>
<g fill="#2196F3FF" stroke="#2196F3FF">
<path d="M 1217.653 703.250 L 1070.073 851.500 1070.037 1215.583 C 1070.017 1415.829 1070.237 1579.903 1070.526 1580.193 C 1071.471 1581.137 1104.071 1575.096 1123.000 1570.468 C 1240.593 1541.721 1345.791 1478.141 1424.910 1388.000 C 1520.373 1279.236 1571.287 1144.415 1571.245 1000.500 C 1571.237 971.526 1570.325 956.212 1566.931 928.000 C 1552.746 810.112 1501.360 696.959 1422.064 609.001 C 1402.501 587.301 1369.102 555.000 1366.227 555.000 C 1365.681 555.000 1298.822 621.713 1217.653 703.250 "/></g>
<g fill="#2196F3FF" stroke="#2196F3FF">
<path d="M 592.430 563.828 C 580.291 574.620 554.135 601.118 542.905 614.000 C 481.876 684.005 438.508 766.681 415.963 856.000 C 403.453 905.561 398.678 944.902 398.607 999.000 C 398.549 1042.940 400.436 1065.520 407.478 1105.165 C 416.934 1158.397 433.201 1207.937 457.499 1257.500 C 524.832 1394.845 640.545 1499.103 784.000 1551.677 C 817.173 1563.835 851.225 1572.570 893.750 1579.831 L 899.000 1580.727 899.000 1215.798 L 899.000 850.869 759.099 710.685 C 682.153 633.583 615.794 567.013 611.635 562.750 C 607.476 558.488 603.687 555.000 603.217 555.000 C 602.746 555.000 597.892 558.973 592.430 563.828 "/></g>
</svg>
